<?xml version="1.0" encoding="UTF-8"?>
<svg id="Layer_2" data-name="Layer 2" xmlns="http://www.w3.org/2000/svg" xmlns:xlink="http://www.w3.org/1999/xlink" viewBox="0 0 70.39 33.05">
  <defs>
    <style>
      .cls-1 {
        fill: none;
      }

      .cls-2 {
        fill: url(#linear-gradient);
      }

      .cls-3 {
        clip-path: url(#clippath);
      }

      .cls-4 {
        fill: #fff;
      }

      .cls-5 {
        fill: url(#linear-gradient-12);
        stroke: url(#linear-gradient-13);
        stroke-miterlimit: 10;
        stroke-width: .18px;
      }

      .cls-6 {
        clip-path: url(#clippath-1);
      }

      .cls-7 {
        clip-path: url(#clippath-2);
      }

      .cls-8 {
        fill: url(#linear-gradient-8);
      }

      .cls-9 {
        fill: url(#linear-gradient-9);
      }

      .cls-10 {
        fill: url(#linear-gradient-3);
      }

      .cls-11 {
        fill: url(#linear-gradient-4);
      }

      .cls-12 {
        fill: url(#linear-gradient-2);
      }

      .cls-13 {
        fill: url(#linear-gradient-6);
      }

      .cls-14 {
        fill: url(#linear-gradient-7);
      }

      .cls-15 {
        fill: url(#linear-gradient-5);
      }

      .cls-16 {
        fill: url(#linear-gradient-14);
      }

      .cls-17 {
        fill: url(#linear-gradient-15);
      }

      .cls-18 {
        fill: url(#linear-gradient-16);
      }

      .cls-19 {
        fill: url(#linear-gradient-10);
      }

      .cls-20 {
        fill: url(#linear-gradient-11);
      }
    </style>
    <clipPath id="clippath">
      <rect class="cls-1" x="21.98" y="15.93" width="42.94" height="11.2" rx="5.6" ry="5.6"/>
    </clipPath>
    <clipPath id="clippath-1">
      <rect class="cls-1" x="21.98" y="8.31" width="42.94" height="20.48" rx="1.33" ry="1.33"/>
    </clipPath>
    <linearGradient id="linear-gradient" x1="38.69" y1="-9.7" x2="49.92" y2="32.97" gradientUnits="userSpaceOnUse">
      <stop offset="0" stop-color="#4744b1"/>
      <stop offset=".06" stop-color="#4240a3"/>
      <stop offset=".28" stop-color="#343272"/>
      <stop offset=".5" stop-color="#28274c"/>
      <stop offset=".7" stop-color="#202030"/>
      <stop offset=".87" stop-color="#1b1b1f"/>
      <stop offset="1" stop-color="#1a1a1a"/>
    </linearGradient>
    <linearGradient id="linear-gradient-2" x1="52.69" y1="19.45" x2="13.64" y2="16.96" xlink:href="#linear-gradient"/>
    <linearGradient id="linear-gradient-3" x1="41.32" y1="16.38" x2="19.42" y2="14.98" xlink:href="#linear-gradient"/>
    <linearGradient id="linear-gradient-4" x1="47.02" y1="24.92" x2="73.45" y2="-1.58" gradientUnits="userSpaceOnUse">
      <stop offset="0" stop-color="#4744b1"/>
      <stop offset=".07" stop-color="#4340a3"/>
      <stop offset=".39" stop-color="#312f69"/>
      <stop offset=".66" stop-color="#24243e"/>
      <stop offset=".87" stop-color="#1c1c23"/>
      <stop offset="1" stop-color="#1a1a1a"/>
    </linearGradient>
    <linearGradient id="linear-gradient-5" x1="57.24" y1="14.97" x2="61.56" y2="10.64" xlink:href="#linear-gradient-4"/>
    <linearGradient id="linear-gradient-6" x1="14.74" y1="25.35" x2="35.94" y2="15.14" xlink:href="#linear-gradient"/>
    <linearGradient id="linear-gradient-7" x1="70.43" y1="-3.96" x2="60.79" y2="11.47" xlink:href="#linear-gradient"/>
    <linearGradient id="linear-gradient-8" x1="70.47" y1="8.32" x2="39.96" y2="20.48" xlink:href="#linear-gradient"/>
    <clipPath id="clippath-2">
      <rect class="cls-1" x="21.98" y="8.31" width="42.94" height="20.48" rx="1.33" ry="1.33"/>
    </clipPath>
    <linearGradient id="linear-gradient-9" x1="52.69" y1="19.45" x2="13.64" y2="16.96" xlink:href="#linear-gradient"/>
    <linearGradient id="linear-gradient-10" x1="41.32" y1="16.38" x2="19.42" y2="14.98" gradientUnits="userSpaceOnUse">
      <stop offset="0" stop-color="#f5c230"/>
      <stop offset="0" stop-color="#ecc440"/>
      <stop offset=".32" stop-color="#fffa8a"/>
      <stop offset=".68" stop-color="#ddac17"/>
      <stop offset="1" stop-color="#ffff95"/>
    </linearGradient>
    <linearGradient id="linear-gradient-11" x1="57.24" y1="14.97" x2="61.56" y2="10.64" xlink:href="#linear-gradient-10"/>
    <linearGradient id="linear-gradient-12" x1="14.74" y1="25.35" x2="35.94" y2="15.14" xlink:href="#linear-gradient"/>
    <linearGradient id="linear-gradient-13" x1="20.14" y1="20.09" x2="33.18" y2="20.09" xlink:href="#linear-gradient"/>
    <linearGradient id="linear-gradient-14" x1="70.43" y1="-3.96" x2="60.79" y2="11.47" xlink:href="#linear-gradient"/>
    <linearGradient id="linear-gradient-15" x1="70.47" y1="8.32" x2="39.96" y2="20.48" xlink:href="#linear-gradient"/>
    <linearGradient id="linear-gradient-16" x1="129.4" y1="944.96" x2="107.5" y2="943.57" gradientTransform="translate(-731.87 -558.97) rotate(-44.68)" xlink:href="#linear-gradient-10"/>
  </defs>
  <g id="Layer_1-2" data-name="Layer 1">
    <g>
      <g class="cls-3">
        <g>
          <g class="cls-6">
            <g>
              <path class="cls-2" d="M70.37,1.07V29.74c0,.32-.15,.61-.38,.8-.06,.05-.13,.1-.21,.13-.13,.06-.28,.1-.44,.1H21.26c-.57,0-1.03-.46-1.03-1.03V1.07c0-.57,.46-1.03,1.03-1.03h48.08c.57,0,1.03,.46,1.03,1.03Z"/>
              <path class="cls-12" d="M39.35,30.77H21.26c-.57,0-1.03-.46-1.03-1.03V6.11c2.05-1.04,5.89-2.41,10.11-1.07,5.94,1.88,9.29,8.25,9.27,13.17,0,3.76-3.77,5.28-3.2,8.73,.37,2.21,2.23,2.98,2.93,3.84Z"/>
              <path class="cls-10" d="M40.29,30.82c-.2-.27-.5-.53-.84-.82-.88-.77-1.97-1.72-2.26-3.54-.3-1.94,.61-3.57,1.5-5.14,.35-.62,.71-1.26,.99-1.92,.89-2.08,1-4.6,.29-7.1-1.42-5-5-9.14-9.14-10.54-4.46-1.52-8.55,.11-10.58,1.21l-.06-.12c2.06-1.11,6.18-2.75,10.69-1.22,4.18,1.42,7.8,5.59,9.23,10.63,.72,2.53,.61,5.08-.3,7.19-.28,.66-.65,1.3-1,1.93-.88,1.55-1.78,3.16-1.49,5.05,.28,1.78,1.35,2.71,2.21,3.46,.35,.3,.65,.56,.86,.84l-.11,.08Z"/>
              <path class="cls-11" d="M70.37,1.07V20.68c-1.53,.45-3.48,.47-4.89-.52-2.96-2.08-.52-6.55-3.35-9.82-1.22-1.41-2.82-1.9-4.43-2.15-2.61-.4-5.23-.15-6.25-2.05-.9-1.68-.05-4.1,1.26-6.09h16.62c.57,0,1.03,.46,1.03,1.03Z"/>
              <path class="cls-15" d="M68.14,23.5c-1.22,0-2.34-.32-3.2-.93-1.69-1.21-1.81-3.12-1.94-5.16-.13-1.99-.26-4.05-1.77-5.83-1.42-1.66-3.33-2.15-4.84-2.38-.63-.1-1.27-.16-1.89-.23-2.14-.21-4.16-.42-5.05-2.11-1.25-2.36,.56-5.59,1.39-6.87l.11,.07c-1.71,2.63-2.23,5.14-1.38,6.74,.86,1.62,2.75,1.81,4.95,2.03,.62,.06,1.26,.13,1.9,.23,1.53,.24,3.47,.73,4.92,2.43,1.54,1.81,1.68,3.89,1.8,5.91,.13,2,.24,3.89,1.88,5.05,1.34,.96,3.33,1.17,5.33,.57l.04,.13c-.76,.23-1.52,.34-2.25,.34Z"/>
              <path class="cls-13" d="M32.71,22.44c-1.35,6.92-5.64,10.03-12.49,2.58V12.41c3.08-2.26,7.7-2.02,10.56,.55,2.64,2.38,2.58,6.17,1.93,9.47Z"/>
              <path class="cls-14" d="M70.37,1.07V11.06c-.38,.32-.8,.52-1.24,.5-1.86-.08-1.73-3.95-4.79-5.73-3.25-1.88-6.7,.57-7.6-.82-.62-.95,.37-3.11,2.18-4.98h10.42c.57,0,1.03,.46,1.03,1.03Z"/>
              <path class="cls-8" d="M69.99,30.54c-.06,.05-.13,.1-.21,.13-.13,.06-.28,.1-.44,.1h-26.73c2.65-1.86,5.49-4.2,5.5-7.34,0-4.91-6.92-6.26-8.18-14.11-.54-3.36,.46-4.77-.93-6.86-.79-1.18-1.91-1.93-3.12-2.43h7.75c-.04,2.31-1.21,4.96,.51,7.18,2.33,2.99,6.33,.57,10.29,3.58,3.65,2.78,1.85,6.06,5.38,11.38,3.45,5.19,8.36,6.87,10.2,8.36Z"/>
            </g>
          </g>
          <g class="cls-7">
            <g>
              <path class="cls-2" d="M70.37,1.07V29.74c0,.32-.15,.61-.38,.8-.06,.05-.13,.1-.21,.13-.13,.06-.28,.1-.44,.1H21.26c-.57,0-1.03-.46-1.03-1.03V1.07c0-.57,.46-1.03,1.03-1.03h48.08c.57,0,1.03,.46,1.03,1.03Z"/>
              <path class="cls-9" d="M39.35,30.77H21.26c-.57,0-1.03-.46-1.03-1.03V6.11c2.05-1.04,5.89-2.41,10.11-1.07,5.94,1.88,9.29,8.25,9.27,13.17,0,3.76-3.77,5.28-3.2,8.73,.37,2.21,2.23,2.98,2.93,3.84Z"/>
              <path class="cls-19" d="M40.29,30.82c-.2-.27-.5-.53-.84-.82-.88-.77-1.97-1.72-2.26-3.54-.3-1.94,.61-3.57,1.5-5.14,.35-.62,.71-1.26,.99-1.92,.89-2.08,1-4.6,.29-7.1-1.42-5-5-9.14-9.14-10.54-4.46-1.52-8.55,.11-10.58,1.21l-.06-.12c2.06-1.11,6.18-2.75,10.69-1.22,4.18,1.42,7.8,5.59,9.23,10.63,.72,2.53,.61,5.08-.3,7.19-.28,.66-.65,1.3-1,1.93-.88,1.55-1.78,3.16-1.49,5.05,.28,1.78,1.35,2.71,2.21,3.46,.35,.3,.65,.56,.86,.84l-.11,.08Z"/>
              <path class="cls-11" d="M70.37,1.07V20.68c-1.53,.45-3.48,.47-4.89-.52-2.96-2.08-.52-6.55-3.35-9.82-1.22-1.41-2.82-1.9-4.43-2.15-2.61-.4-5.23-.15-6.25-2.05-.9-1.68-.05-4.1,1.26-6.09h16.62c.57,0,1.03,.46,1.03,1.03Z"/>
              <path class="cls-20" d="M68.14,23.5c-1.22,0-2.34-.32-3.2-.93-1.69-1.21-1.81-3.12-1.94-5.16-.13-1.99-.26-4.05-1.77-5.83-1.42-1.66-3.33-2.15-4.84-2.38-.63-.1-1.27-.16-1.89-.23-2.14-.21-4.16-.42-5.05-2.11-1.25-2.36,.56-5.59,1.39-6.87l.11,.07c-1.71,2.63-2.23,5.14-1.38,6.74,.86,1.62,2.75,1.81,4.95,2.03,.62,.06,1.26,.13,1.9,.23,1.53,.24,3.47,.73,4.92,2.43,1.54,1.81,1.68,3.89,1.8,5.91,.13,2,.24,3.89,1.88,5.05,1.34,.96,3.33,1.17,5.33,.57l.04,.13c-.76,.23-1.52,.34-2.25,.34Z"/>
              <path class="cls-5" d="M32.71,22.44c-1.35,6.92-5.64,10.03-12.49,2.58V12.41c3.08-2.26,7.7-2.02,10.56,.55,2.64,2.38,2.58,6.17,1.93,9.47Z"/>
              <path class="cls-16" d="M70.37,1.07V11.06c-.38,.32-.8,.52-1.24,.5-1.86-.08-1.73-3.95-4.79-5.73-3.25-1.88-6.7,.57-7.6-.82-.62-.95,.37-3.11,2.18-4.98h10.42c.57,0,1.03,.46,1.03,1.03Z"/>
              <path class="cls-17" d="M69.99,30.54c-.06,.05-.13,.1-.21,.13-.13,.06-.28,.1-.44,.1h-26.73c2.65-1.86,5.49-4.2,5.5-7.34,0-4.91-6.92-6.26-8.18-14.11-.54-3.36,.46-4.77-.93-6.86-.79-1.18-1.91-1.93-3.12-2.43h7.75c-.04,2.31-1.21,4.96,.51,7.18,2.33,2.99,6.33,.57,10.29,3.58,3.65,2.78,1.85,6.06,5.38,11.38,3.45,5.19,8.36,6.87,10.2,8.36Z"/>
              <path class="cls-18" d="M33.96,33.01c-.33-.05-.72-.02-1.18,0-1.16,.07-2.61,.16-4.1-.93-1.58-1.17-2.07-2.97-2.55-4.71-.19-.69-.38-1.4-.64-2.06-.82-2.11-2.52-3.97-4.79-5.25-4.52-2.56-9.98-2.98-13.91-1.07C2.56,21.04,.8,25.07,.13,27.28l-.13-.04c.68-2.24,2.46-6.3,6.74-8.38,3.97-1.93,9.48-1.5,14.04,1.08,2.29,1.3,4.01,3.19,4.85,5.32,.26,.67,.46,1.38,.64,2.08,.47,1.72,.95,3.5,2.49,4.64,1.45,1.07,2.87,.98,4.01,.91,.46-.03,.86-.05,1.2,0l-.02,.14Z"/>
            </g>
          </g>
        </g>
      </g>
      <g>
        <path class="cls-4" d="M34.56,19.52c-.22-.11-.48-.17-.79-.17h-1.48v3.79h.79v-1.05h.68c.31,0,.57-.06,.79-.17,.22-.11,.39-.27,.51-.47,.12-.2,.18-.45,.18-.73s-.06-.53-.18-.73c-.12-.21-.29-.36-.51-.47Zm-.29,1.69c-.12,.12-.31,.17-.55,.17h-.64v-1.32h.64c.24,0,.42,.06,.55,.17,.12,.11,.19,.28,.19,.49s-.06,.37-.19,.49Z"/>
        <path class="cls-4" d="M36.41,20.63v-.4h-.73v2.92h.76v-1.38c0-.28,.06-.48,.19-.62s.3-.2,.51-.2c.03,0,.05,0,.08,0,.03,0,.06,0,.08,.02v-.79c-.25,0-.46,.05-.63,.16-.11,.07-.2,.17-.27,.29Z"/>
        <path class="cls-4" d="M39.56,20.37c-.21-.12-.44-.18-.7-.18s-.51,.06-.72,.19-.38,.31-.5,.53c-.12,.23-.18,.49-.18,.77s.06,.55,.19,.77c.12,.23,.3,.4,.52,.53,.22,.13,.49,.2,.79,.2,.24,0,.45-.04,.63-.12,.18-.08,.33-.2,.45-.35l-.41-.49c-.09,.09-.18,.16-.29,.21s-.23,.07-.36,.07c-.16,0-.3-.03-.41-.09-.11-.06-.2-.15-.27-.27-.03-.06-.03-.14-.05-.22h1.96s0-.08,0-.12c0-.04,0-.08,0-.11,0-.31-.06-.58-.18-.81s-.28-.4-.49-.52Zm-1.03,.55c.1-.06,.21-.09,.34-.09s.24,.03,.34,.09c.1,.06,.17,.15,.23,.26,.04,.07,.04,.16,.05,.25h-1.25c.01-.09,.02-.18,.05-.25,.06-.11,.13-.2,.23-.27Z"/>
        <path class="cls-4" d="M44.53,20.33c-.16-.09-.35-.14-.55-.14-.25,0-.48,.07-.67,.2-.11,.08-.2,.18-.28,.28-.06-.11-.14-.21-.24-.28-.18-.14-.39-.2-.63-.2-.21,0-.4,.05-.57,.15-.1,.06-.18,.14-.25,.23v-.34h-.73v2.92h.76v-1.46c0-.18,.02-.32,.07-.43,.05-.11,.12-.19,.21-.25s.19-.08,.3-.08c.16,0,.29,.06,.37,.17s.13,.29,.13,.52v1.54h.76v-1.46c0-.18,.02-.32,.07-.43,.05-.11,.12-.19,.2-.25,.09-.06,.19-.08,.3-.08,.16,0,.28,.06,.36,.17,.09,.11,.13,.29,.13,.52v1.54h.76v-1.67c0-.3-.04-.54-.14-.73-.09-.19-.22-.33-.38-.42Z"/>
        <rect class="cls-4" x="45.61" y="20.23" width=".76" height="2.92"/>
        <path class="cls-4" d="M45.99,18.88c-.14,0-.26,.05-.35,.14s-.13,.2-.13,.34,.04,.25,.13,.34,.2,.14,.35,.14,.26-.05,.35-.14,.13-.21,.13-.35-.04-.24-.13-.33c-.09-.08-.2-.13-.34-.13Z"/>
        <path class="cls-4" d="M48.85,21.68c0,.17-.03,.32-.08,.43-.05,.12-.13,.2-.22,.26-.09,.06-.2,.09-.31,.09-.17,0-.3-.06-.39-.17-.09-.11-.14-.29-.14-.54v-1.52h-.76v1.65c0,.3,.05,.54,.14,.74,.09,.2,.23,.34,.39,.43,.17,.09,.36,.14,.59,.14,.2,0,.39-.05,.56-.15,.1-.06,.19-.15,.26-.25v.36h.72v-2.92h-.76v1.45Z"/>
        <path class="cls-4" d="M54.48,20.75c-.09-.19-.22-.33-.38-.42s-.35-.14-.55-.14c-.25,0-.48,.07-.67,.2-.11,.08-.2,.18-.28,.28-.06-.11-.14-.21-.24-.28-.18-.14-.39-.2-.63-.2-.21,0-.4,.05-.57,.15-.1,.06-.18,.14-.25,.23v-.34h-.73v2.92h.76v-1.46c0-.18,.02-.32,.07-.43,.05-.11,.12-.19,.21-.25s.19-.08,.3-.08c.16,0,.29,.06,.37,.17s.13,.29,.13,.52v1.54h.76v-1.46c0-.18,.02-.32,.07-.43,.05-.11,.12-.19,.2-.25,.09-.06,.19-.08,.3-.08,.16,0,.28,.06,.36,.17,.09,.11,.13,.29,.13,.52v1.54h.76v-1.67c0-.3-.04-.54-.14-.73Z"/>
      </g>
    </g>
  </g>
</svg>