<?xml version="1.0" encoding="UTF-8"?>
<svg id="Layer_2" data-name="Layer 2" xmlns="http://www.w3.org/2000/svg" xmlns:xlink="http://www.w3.org/1999/xlink" viewBox="0 0 106.82 65.57">
  <defs>
    <style>
      .cls-1 {
        fill: none;
      }

      .cls-2 {
        fill: url(#linear-gradient);
      }

      .cls-3 {
        clip-path: url(#clippath);
      }

      .cls-4 {
        clip-path: url(#clippath-1);
      }

      .cls-5 {
        fill: url(#linear-gradient-8);
      }

      .cls-6 {
        fill: url(#linear-gradient-9);
      }

      .cls-7 {
        fill: url(#linear-gradient-3);
      }

      .cls-8 {
        fill: url(#linear-gradient-4);
      }

      .cls-9 {
        fill: url(#linear-gradient-2);
      }

      .cls-10 {
        fill: url(#linear-gradient-6);
      }

      .cls-11 {
        fill: url(#linear-gradient-7);
      }

      .cls-12 {
        fill: url(#linear-gradient-5);
      }

      .cls-13 {
        fill: url(#linear-gradient-10);
      }
    </style>
    <clipPath id="clippath">
      <path class="cls-1" d="M71.65,35.18c-2.74-11.96-14.89-18.68-26.49-14.65-8.73,3.03-14.52,12.33-13.13,21.45,1.31,8.61,6.27,14.24,14.59,16.85,1.28,.4,2.65,.52,3.97,.77h2.88c1.03-.18,2.06-.31,3.08-.54,10.61-2.4,17.52-13.34,15.1-23.88Z"/>
    </clipPath>
    <clipPath id="clippath-1">
      <rect class="cls-1" x="3.8" y="17.69" width="91.38" height="43.58" rx="2.84" ry="2.84"/>
    </clipPath>
    <linearGradient id="linear-gradient" x1="39.37" y1="-20.65" x2="63.25" y2="70.15" gradientUnits="userSpaceOnUse">
      <stop offset="0" stop-color="#4744b1"/>
      <stop offset=".06" stop-color="#4240a3"/>
      <stop offset=".28" stop-color="#343272"/>
      <stop offset=".5" stop-color="#28274c"/>
      <stop offset=".7" stop-color="#202030"/>
      <stop offset=".87" stop-color="#1b1b1f"/>
      <stop offset="1" stop-color="#1a1a1a"/>
    </linearGradient>
    <linearGradient id="linear-gradient-2" x1="69.15" y1="41.39" x2="-13.94" y2="36.08" xlink:href="#linear-gradient"/>
    <linearGradient id="linear-gradient-3" x1="44.95" y1="34.86" x2="-1.65" y2="31.88" xlink:href="#linear-gradient"/>
    <linearGradient id="linear-gradient-4" x1="57.1" y1="53.02" x2="113.32" y2="-3.37" gradientUnits="userSpaceOnUse">
      <stop offset="0" stop-color="#4744b1"/>
      <stop offset=".07" stop-color="#4340a3"/>
      <stop offset=".39" stop-color="#312f69"/>
      <stop offset=".66" stop-color="#24243e"/>
      <stop offset=".87" stop-color="#1c1c23"/>
      <stop offset="1" stop-color="#1a1a1a"/>
    </linearGradient>
    <linearGradient id="linear-gradient-5" x1="78.83" y1="31.85" x2="88.02" y2="22.64" xlink:href="#linear-gradient-4"/>
    <linearGradient id="linear-gradient-6" x1="-11.61" y1="53.95" x2="33.5" y2="32.22" xlink:href="#linear-gradient"/>
    <linearGradient id="linear-gradient-7" x1="106.9" y1="-8.43" x2="86.38" y2="24.41" xlink:href="#linear-gradient"/>
    <linearGradient id="linear-gradient-8" x1="106.99" y1="17.72" x2="42.06" y2="43.59" xlink:href="#linear-gradient"/>
    <linearGradient id="linear-gradient-9" x1="44.89" y1="43.87" x2="59.05" y2="43.87" gradientUnits="userSpaceOnUse">
      <stop offset="0" stop-color="#f5c230"/>
      <stop offset="0" stop-color="#ecc440"/>
      <stop offset=".32" stop-color="#fffa8a"/>
      <stop offset=".68" stop-color="#ddac17"/>
      <stop offset="1" stop-color="#ffff95"/>
    </linearGradient>
    <linearGradient id="linear-gradient-10" x1="48.19" y1="35.65" x2="55.56" y2="35.65" xlink:href="#linear-gradient-9"/>
  </defs>
  <g id="Layer_1-2" data-name="Layer 1">
    <g>
      <g class="cls-3">
        <g class="cls-4">
          <g>
            <path class="cls-2" d="M106.77,2.28V63.28c0,.69-.31,1.3-.81,1.7-.14,.11-.29,.21-.45,.29-.29,.14-.6,.21-.94,.21H2.27c-1.22,0-2.2-.99-2.2-2.2V2.28C.07,1.06,1.05,.08,2.27,.08H104.58c1.22,0,2.2,.98,2.2,2.2Z"/>
            <path class="cls-9" d="M40.76,65.49H2.27c-1.22,0-2.2-.99-2.2-2.2V13c4.37-2.21,12.54-5.13,21.51-2.29,12.63,4,19.77,17.55,19.74,28.03-.02,8.01-8.03,11.24-6.8,18.57,.79,4.71,4.75,6.33,6.24,8.17Z"/>
            <path class="cls-7" d="M42.77,65.57c-.43-.57-1.06-1.12-1.79-1.75-1.87-1.63-4.2-3.66-4.81-7.54-.65-4.14,1.31-7.59,3.2-10.94,.75-1.32,1.52-2.69,2.12-4.08,1.9-4.42,2.12-9.79,.62-15.11C39.09,15.52,31.46,6.72,22.66,3.73,13.16,.5,4.47,3.95,.14,6.3l-.14-.26C4.38,3.67,13.15,.19,22.75,3.45c8.89,3.02,16.59,11.9,19.63,22.63,1.53,5.38,1.3,10.82-.63,15.3-.6,1.4-1.38,2.77-2.13,4.1-1.86,3.3-3.79,6.71-3.16,10.75,.59,3.78,2.88,5.77,4.71,7.37,.74,.64,1.38,1.2,1.83,1.8l-.23,.18Z"/>
            <path class="cls-8" d="M106.77,2.28V44c-3.26,.96-7.41,.99-10.4-1.11-6.3-4.43-1.11-13.95-7.13-20.9-2.59-2.99-6-4.05-9.42-4.58-5.55-.86-11.13-.32-13.3-4.37-1.92-3.58-.11-8.73,2.68-12.96h35.37c1.22,0,2.2,.98,2.2,2.2Z"/>
            <path class="cls-12" d="M102.04,50.01c-2.59,0-4.98-.67-6.81-1.98-3.59-2.56-3.85-6.65-4.12-10.97-.27-4.24-.54-8.63-3.77-12.4-3.02-3.53-7.09-4.57-10.3-5.07-1.35-.21-2.71-.35-4.02-.48-4.55-.46-8.85-.89-10.75-4.48-2.65-5.02,1.19-11.9,2.96-14.63l.24,.16c-3.64,5.59-4.74,10.95-2.95,14.33,1.83,3.46,5.86,3.86,10.53,4.33,1.32,.13,2.68,.27,4.03,.48,3.26,.51,7.39,1.56,10.47,5.17,3.29,3.85,3.57,8.28,3.84,12.57,.27,4.25,.52,8.27,4,10.75,2.85,2.03,7.09,2.49,11.34,1.22l.08,.28c-1.62,.48-3.24,.72-4.78,.72Z"/>
            <path class="cls-10" d="M26.64,47.74c-2.88,14.72-12,21.35-26.57,5.49V26.41c6.56-4.81,16.38-4.31,22.46,1.18,5.61,5.06,5.48,13.12,4.11,20.15Z"/>
            <path class="cls-11" d="M106.77,2.28V23.53c-.82,.68-1.71,1.11-2.64,1.07-3.97-.16-3.69-8.41-10.2-12.19-6.91-4.01-14.26,1.2-16.17-1.74-1.32-2.03,.79-6.61,4.64-10.6h22.17c1.22,0,2.2,.98,2.2,2.2Z"/>
            <path class="cls-5" d="M105.97,64.99c-.14,.11-.29,.21-.45,.29-.29,.14-.6,.21-.94,.21H47.69c5.63-3.95,11.69-8.93,11.7-15.63,.02-10.46-14.73-13.33-17.41-30.02-1.15-7.14,.98-10.15-1.99-14.59-1.68-2.51-4.07-4.11-6.64-5.17h16.5c-.09,4.91-2.59,10.56,1.09,15.28,4.95,6.36,13.47,1.22,21.89,7.63,7.77,5.92,3.94,12.91,11.44,24.22,7.33,11.04,17.79,14.62,21.7,17.78Z"/>
          </g>
        </g>
      </g>
      <g>
        <path class="cls-6" d="M51.93,46.99c-1.53,0-3.05,0-4.58,0-2,0-3-1.61-2.16-3.42,.53-1.14,1.37-1.99,2.4-2.67,.34-.23,.68-.14,1.01,.02,1.23,.61,2.55,.82,3.9,.65,.91-.11,1.81-.37,2.7-.62,.6-.17,1.11-.13,1.6,.28,.77,.63,1.41,1.37,1.93,2.21,.94,1.53-.16,3.5-1.96,3.56-.03,0-.05,0-.08,0-1.58,0-3.16,0-4.74,0Z"/>
        <path class="cls-13" d="M51.88,39.34c-2.01,0-3.69-1.65-3.7-3.65,0-2.02,1.66-3.71,3.67-3.72,2.01,0,3.7,1.68,3.7,3.7,0,2-1.67,3.66-3.67,3.67Z"/>
      </g>
    </g>
  </g>
</svg>